<svg width="40" height="40" viewBox="0 0 40 40" fill="none" xmlns="http://www.w3.org/2000/svg">
<rect width="40" height="40" rx="20" fill="white"/>
<path d="M23.75 20C23.75 21.725 22.35 23.125 20.625 23.125C18.9 23.125 17.5 21.725 17.5 20C17.5 18.275 18.9 16.875 20.625 16.875C22.35 16.875 23.75 18.275 23.75 20ZM33.125 20C33.125 26.9 27.525 32.5 20.625 32.5C13.725 32.5 8.125 26.9 8.125 20C8.125 13.1 13.725 7.5 20.625 7.5C27.525 7.5 33.125 13.1 33.125 20ZM30.625 20H25.625C25.625 17.2375 23.3875 15 20.625 15C17.8625 15 15.625 17.2375 15.625 20H10.625C10.625 25.5125 15.1125 30 20.625 30C26.1375 30 30.625 25.5125 30.625 20Z" fill="#DC2424"/>
</svg>
