<svg width="48" height="48" viewBox="0 0 48 48" fill="none" xmlns="http://www.w3.org/2000/svg">
<rect width="48" height="48" rx="24" fill="#F357A1"/>
<path fill-rule="evenodd" clip-rule="evenodd" d="M31.8672 11.9609C31.9617 11.9153 32.0462 11.8966 32.1208 11.8966C32.1939 11.8966 32.3652 11.9398 32.6491 12.1067C32.918 12.2647 33.2342 12.5015 33.5809 12.8046C34.2731 13.4096 35.0446 14.2417 35.744 15.1279C36.4443 16.0153 37.0564 16.9368 37.4404 17.7162C37.633 18.1072 37.7587 18.4435 37.8154 18.71C37.8753 18.9917 37.841 19.1147 37.8234 19.1476C37.1906 20.3291 36.0219 21.4605 34.8604 22.1911C34.2813 22.5553 33.7295 22.8035 33.2737 22.9141C32.7968 23.0298 32.5347 22.9707 32.419 22.8883C31.9358 22.5446 31.7721 22.1981 31.7082 21.8155C31.6734 21.6072 31.6673 21.3785 31.6725 21.1112C31.6743 21.0205 31.6777 20.9189 31.6813 20.8117L31.6813 20.811C31.6874 20.6274 31.6941 20.4277 31.6941 20.2393C31.6941 19.9572 31.4645 19.7285 31.1812 19.7285C30.8979 19.7285 30.6683 19.9572 30.6683 20.2393C30.6683 20.4174 30.6627 20.5778 30.657 20.7437L30.657 20.7439L30.657 20.744C30.6532 20.8549 30.6493 20.9683 30.6469 21.0913C30.6413 21.3773 30.6457 21.6807 30.6962 21.9831C30.8029 22.6221 31.1091 23.212 31.8227 23.7196C32.3054 24.0629 32.9409 24.0463 33.5166 23.9066C34.1134 23.7618 34.769 23.4568 35.4082 23.0548C35.4997 22.9972 35.5914 22.9373 35.6831 22.8753C35.7605 23.4218 35.8006 23.9804 35.8006 24.5483C35.8006 31.0722 30.512 36.3608 23.9881 36.3608C17.4643 36.3608 12.1756 31.0722 12.1756 24.5483C12.1756 23.9753 12.2164 23.4117 12.2953 22.8605C12.3942 22.9279 12.4932 22.9927 12.5919 23.0548C13.2311 23.4568 13.8867 23.7618 14.4836 23.9066C15.0592 24.0463 15.6948 24.0629 16.1774 23.7196C16.8911 23.212 17.1972 22.6221 17.3039 21.9831C17.3544 21.6807 17.3588 21.3773 17.3532 21.0913C17.3508 20.9683 17.3469 20.8548 17.3431 20.7439C17.3374 20.5779 17.3319 20.4175 17.3319 20.2393C17.3319 19.9572 17.1022 19.7285 16.8189 19.7285C16.5356 19.7285 16.306 19.9572 16.306 20.2393C16.306 20.4277 16.3127 20.6274 16.3188 20.811L16.3188 20.8112C16.3224 20.9185 16.3258 21.0203 16.3276 21.1112C16.3328 21.3785 16.3267 21.6072 16.2919 21.8155C16.228 22.1981 16.0643 22.5446 15.5812 22.8883C15.4654 22.9707 15.2034 23.0298 14.7264 22.9141C14.2707 22.8035 13.7188 22.5553 13.1397 22.1911C11.9782 21.4605 10.8095 20.3291 10.1768 19.1476C10.1591 19.1147 10.1248 18.9917 10.1847 18.71C10.2414 18.4435 10.3671 18.1072 10.5598 17.7162C10.9437 16.9368 11.5558 16.0153 12.2561 15.1279C12.9555 14.2417 13.727 13.4096 14.4192 12.8046C14.7659 12.5015 15.0822 12.2647 15.351 12.1067C15.6349 11.9398 15.8062 11.8966 15.8793 11.8966C16.034 11.8966 16.2309 11.9767 16.4714 12.2111C16.7097 12.4433 16.9426 12.7818 17.1583 13.1813C17.5885 13.9782 17.8963 14.9159 18.0326 15.4318C18.1047 15.7046 18.3853 15.8675 18.6592 15.7957C18.9332 15.724 19.0968 15.4446 19.0247 15.1718C18.9476 14.8799 18.8208 14.4647 18.6494 14.0083C20.2529 13.1945 22.0669 12.7358 23.9881 12.7358C25.9173 12.7358 27.7385 13.1983 29.3469 14.0185C29.1774 14.4709 29.052 14.8821 28.9754 15.1718C28.9033 15.4446 29.067 15.724 29.3409 15.7958C29.6149 15.8675 29.8954 15.7046 29.9675 15.4318C30.0288 15.1998 30.1248 14.8824 30.251 14.5309C30.2703 14.543 30.2895 14.5551 30.3087 14.5673C30.5495 13.7467 31.0891 12.4882 31.8672 11.9609Z" fill="white"/>
<path fill-rule="evenodd" clip-rule="evenodd" d="M30.4168 29.0019C30.4168 31 27.544 31 24.0002 31C20.4563 31 17.5835 31 17.5835 29.0019C17.5835 25.7562 20.4563 23.125 24.0002 23.125C27.544 23.125 30.4168 25.7562 30.4168 29.0019ZM23.1517 27.5276C23.1517 28.5752 22.462 29.4245 21.6112 29.4245C20.7604 29.4245 20.0707 28.5752 20.0707 27.5276C20.0707 26.48 20.7604 25.6307 21.6112 25.6307C22.462 25.6307 23.1517 26.48 23.1517 27.5276ZM26.23 29.4245C27.0808 29.4245 27.7705 28.5752 27.7705 27.5276C27.7705 26.48 27.0808 25.6307 26.23 25.6307C25.3792 25.6307 24.6895 26.48 24.6895 27.5276C24.6895 28.5752 25.3792 29.4245 26.23 29.4245Z" fill="#F9ABD0"/>
</svg>
